<?xml version="1.0" standalone="no"?>
<!DOCTYPE svg PUBLIC "-//W3C//DTD SVG 20010904//EN"
 "http://www.w3.org/TR/2001/REC-SVG-20010904/DTD/svg10.dtd">
<svg version="1.0" xmlns="http://www.w3.org/2000/svg"
 width="738.000000pt" height="745.000000pt" viewBox="0 0 738.000000 745.000000"
 preserveAspectRatio="xMidYMid meet">

<g transform="translate(0.000000,745.000000) scale(0.100000,-0.100000)"
fill="#000000" stroke="none">
<path d="M1205 6858 c-133 -119 -676 -619 -732 -674 -52 -50 -62 -74 -43 -104
12 -19 121 -18 167 1 17 8 183 156 368 329 184 173 344 316 354 318 16 3 365
-316 621 -566 30 -30 79 -65 109 -79 48 -23 60 -25 109 -17 45 7 56 13 64 34
8 23 -2 35 -124 151 l-133 127 -5 209 -5 208 -127 3 c-146 3 -131 14 -128 -99
1 -32 -2 -59 -7 -62 -5 -3 -82 62 -172 144 -202 185 -197 184 -316 77z"/>
<path d="M3316 6764 c-14 -14 -16 -86 -16 -645 l0 -629 -80 0 c-79 0 -80 0
-80 -25 l0 -25 560 0 560 0 0 25 c0 25 -1 25 -80 25 l-80 0 0 635 0 635 -26
10 c-15 6 -175 10 -384 10 -313 0 -361 -2 -374 -16z m729 -659 l0 -610 -339
-3 c-260 -2 -341 1 -347 10 -9 14 -11 1196 -3 1210 3 4 159 7 347 6 l342 -3 0
-610z"/>
<path d="M3484 6118 c-14 -22 28 -38 102 -38 71 0 105 15 89 40 -9 14 -182 13
-191 -2z"/>
<path d="M5567 6713 c-4 -4 -7 -248 -7 -542 l1 -536 -28 -5 c-27 -5 -28 -7
-28 -65 l0 -60 568 -3 567 -2 0 65 c0 63 -1 65 -25 65 l-25 0 0 545 0 545
-508 0 c-280 0 -512 -3 -515 -7z m493 -293 l0 -270 -230 0 -230 0 0 270 0 270
230 0 230 0 0 -270z m500 0 l0 -270 -235 0 -235 0 0 270 0 270 235 0 235 0 0
-270z m-503 -482 c-4 -99 -7 -210 -7 -245 l0 -63 -225 0 -225 0 0 245 0 245
232 0 231 0 -6 -182z m503 -63 l0 -245 -240 0 -240 0 0 163 c0 89 3 199 7 245
l6 82 233 0 234 0 0 -245z m60 -310 l0 -35 -545 0 -545 0 0 35 0 35 545 0 545
0 0 -35z"/>
<path d="M5761 6553 c-58 -84 -72 -113 -52 -113 10 0 131 166 131 180 0 31
-26 9 -79 -67z"/>
<path d="M5823 6500 c-35 -52 -39 -65 -24 -74 9 -6 81 96 81 114 0 25 -28 6
-57 -40z"/>
<path d="M6272 5921 c-55 -81 -63 -101 -41 -101 13 0 129 172 123 181 -11 18
-22 7 -82 -80z"/>
<path d="M6340 5876 c-34 -56 -38 -68 -22 -74 12 -4 83 108 76 120 -11 17 -22
7 -54 -46z"/>
<path d="M1260 6598 c-366 -339 -550 -514 -550 -520 0 -8 158 -14 230 -9 19 1
53 15 75 30 48 33 96 51 140 51 39 0 127 -29 120 -40 -2 -4 -25 -10 -51 -13
-25 -2 -51 -10 -57 -16 -8 -8 26 -11 129 -11 140 0 140 0 181 30 22 17 55 33
74 37 29 6 32 4 25 -13 -24 -58 -36 -54 173 -54 105 0 191 2 191 4 0 7 -610
576 -618 576 -4 -1 -32 -24 -62 -52z"/>
<path d="M300 5951 c11 -21 9 -48 -3 -68 -6 -9 -2 -13 11 -13 15 0 18 5 14 25
-4 22 -1 25 22 25 19 0 26 -5 26 -19 0 -11 -6 -22 -12 -24 -7 -3 -4 -6 7 -6
17 -1 20 5 20 49 0 44 -3 50 -20 49 -11 0 -14 -3 -7 -6 23 -9 13 -33 -14 -33
-21 0 -25 4 -21 20 4 15 0 20 -14 20 -16 0 -18 -3 -9 -19z"/>
<path d="M418 5959 c-29 -16 -23 -67 8 -81 33 -15 58 -1 62 36 6 47 -29 69
-70 45z m56 -21 c13 -21 -2 -51 -27 -56 -23 -5 -40 33 -27 59 13 23 38 22 54
-3z"/>
<path d="M513 5959 c10 -6 25 -28 34 -50 l15 -40 14 27 c18 33 18 43 1 20 -12
-16 -14 -14 -30 18 -10 22 -24 36 -34 36 -17 -1 -17 -1 0 -11z"/>
<path d="M599 5963 c-6 -74 -3 -93 16 -93 15 0 16 3 7 12 -7 7 -12 24 -12 38
0 14 5 31 12 38 9 9 8 12 -5 12 -9 0 -17 -3 -18 -7z"/>
<path d="M645 5920 c0 -50 0 -50 32 -50 17 0 34 4 37 8 3 5 -8 6 -25 4 -24 -4
-29 -1 -29 16 0 13 8 22 23 25 l22 4 -22 2 c-33 2 -29 29 5 34 23 3 22 4 -8 6
l-35 1 0 -50z"/>
<path d="M768 5963 c6 -2 12 -22 12 -43 0 -21 -6 -41 -12 -43 -7 -3 -3 -6 8
-6 18 -1 21 4 17 27 l-4 27 23 -27 c20 -24 31 -28 76 -28 29 0 52 4 52 9 0 4
-11 6 -25 3 -21 -3 -25 0 -25 18 0 17 4 21 20 17 12 -3 20 0 20 8 0 8 -8 11
-20 8 -14 -4 -20 0 -20 12 0 13 6 16 25 13 14 -3 25 -1 25 3 0 5 -18 9 -40 9
-35 0 -40 -2 -32 -17 14 -29 9 -67 -10 -71 -22 -4 -46 37 -28 48 26 16 2 40
-37 39 -21 0 -32 -3 -25 -6z m52 -18 c0 -8 -7 -15 -15 -15 -8 0 -15 7 -15 15
0 8 7 15 15 15 8 0 15 -7 15 -15z"/>
<path d="M966 5953 c11 -10 32 -33 47 -51 15 -19 27 -27 27 -19 0 19 -62 87
-80 87 -9 0 -7 -6 6 -17z"/>
<path d="M1025 5960 c3 -5 12 -7 20 -3 21 7 19 13 -6 13 -11 0 -18 -4 -14 -10z"/>
<path d="M1076 5954 c-30 -30 -9 -84 33 -84 21 0 51 30 51 52 0 19 -32 48 -53
48 -8 0 -23 -7 -31 -16z m59 -34 c0 -31 -3 -35 -25 -35 -19 0 -26 6 -28 23 -5
36 5 54 30 50 19 -2 23 -9 23 -38z"/>
<path d="M1173 5955 c9 -8 21 -31 27 -50 6 -19 16 -35 21 -35 12 0 12 0 -11
45 -15 30 -17 41 -7 47 7 5 1 8 -16 8 -25 0 -27 -2 -14 -15z"/>
<path d="M1245 5960 c4 -6 11 -8 16 -5 14 9 11 15 -7 15 -8 0 -12 -5 -9 -10z"/>
<path d="M1296 5962 c-4 -7 0 -20 10 -30 17 -16 17 -17 -7 -20 -29 -3 -60 -42
-34 -42 8 0 14 6 13 13 -2 7 7 12 22 12 15 0 24 -5 23 -12 -2 -8 7 -13 20 -13
13 0 17 3 11 8 -6 4 -20 27 -31 52 -12 29 -22 40 -27 32z"/>
<path d="M1363 5963 c16 -4 18 -13 15 -49 -3 -38 0 -44 16 -44 15 0 16 3 7 14
-18 22 -10 71 12 70 9 -1 17 2 17 7 0 5 -19 8 -42 8 -24 -1 -35 -3 -25 -6z"/>
<path d="M1445 5920 c0 -44 3 -50 20 -49 11 0 14 3 8 6 -7 2 -13 22 -13 43 0
21 6 41 13 43 6 3 3 6 -8 6 -17 1 -20 -5 -20 -49z"/>
<path d="M1501 5956 c-17 -20 -10 -67 11 -79 28 -18 68 7 68 42 0 44 -53 68
-79 37z m59 -16 c20 -38 -19 -77 -48 -48 -23 23 -7 68 25 68 7 0 17 -9 23 -20z"/>
<path d="M1598 5963 c6 -2 11 -8 9 -11 -1 -4 14 -24 34 -44 l37 -37 4 49 c2
31 -1 50 -8 50 -6 0 -9 -14 -7 -32 l4 -33 -29 33 c-16 17 -35 32 -43 31 -10 0
-10 -2 -1 -6z"/>
<path d="M1747 5963 c-14 -14 -6 -34 18 -45 26 -12 34 -38 12 -38 -7 0 -18 5
-25 12 -9 9 -12 9 -12 1 0 -18 39 -26 55 -13 22 18 18 28 -15 45 -32 17 -31
40 1 32 11 -3 17 -1 13 4 -6 10 -38 12 -47 2z"/>
<path d="M1825 5920 l0 -50 38 0 c20 0 37 4 37 8 0 4 -12 8 -27 7 -19 0 -29 6
-31 19 -3 15 1 18 22 14 17 -3 26 -1 26 7 0 8 -9 10 -25 7 -18 -3 -25 0 -25
11 0 9 11 17 28 20 23 3 22 4 -8 6 l-35 1 0 -50z"/>
<path d="M1915 5920 c0 -41 3 -50 18 -50 15 0 15 3 5 20 -19 30 -1 36 23 7 11
-15 28 -27 37 -27 13 0 12 3 -6 16 -16 11 -21 24 -19 47 2 29 -1 32 -28 35
-30 3 -30 2 -30 -48z m48 25 c1 -5 -6 -11 -15 -13 -11 -2 -18 3 -18 13 0 17
30 18 33 0z"/>
<path d="M2003 5955 c9 -8 21 -31 27 -50 6 -19 16 -35 21 -35 12 0 12 0 -11
44 -10 22 -17 43 -14 47 3 5 -4 9 -16 9 -19 0 -20 -2 -7 -15z"/>
<path d="M2074 5961 c3 -5 15 -7 26 -4 18 5 20 0 20 -35 0 -23 -5 -43 -12 -45
-7 -3 1 -5 17 -5 17 0 24 2 18 5 -7 2 -13 22 -13 43 0 21 6 41 13 43 6 3 -7 6
-31 6 -24 1 -41 -3 -38 -8z"/>
<path d="M2166 5948 c-21 -29 -20 -41 2 -61 20 -18 48 -22 56 -9 3 5 -4 8 -16
8 -11 -1 -25 7 -32 17 -16 25 5 53 38 50 14 -1 26 1 26 5 0 4 -13 9 -29 10
-21 2 -34 -4 -45 -20z"/>
<path d="M2258 5958 c7 -7 12 -24 12 -38 0 -14 -5 -31 -12 -38 -9 -9 -3 -12
30 -12 23 0 42 4 42 9 0 4 -11 6 -25 3 -21 -3 -25 0 -25 18 0 17 4 21 20 17
12 -3 20 0 20 8 0 8 -8 11 -20 8 -14 -4 -20 0 -20 12 0 13 6 16 25 13 14 -3
25 -1 25 3 0 5 -19 9 -42 9 -33 0 -39 -3 -30 -12z"/>
<path d="M1595 5880 c-4 -6 3 -10 14 -10 25 0 27 6 6 13 -8 4 -17 2 -20 -3z"/>
<path d="M508 5873 c6 -2 18 -2 25 0 6 3 1 5 -13 5 -14 0 -19 -2 -12 -5z"/>
<path d="M958 5873 c6 -2 18 -2 25 0 6 3 1 5 -13 5 -14 0 -19 -2 -12 -5z"/>
<path d="M738 5793 c-42 -7 -50 -25 -52 -125 -1 -96 -8 -120 -38 -131 -15 -5
-18 -19 -18 -81 0 -64 3 -77 19 -86 13 -6 242 -10 675 -10 749 0 676 -11 676
98 0 45 -5 65 -20 82 -17 20 -20 38 -20 124 0 56 -5 108 -10 116 -8 12 -46 15
-222 18 -128 1 -219 -2 -228 -8 -12 -8 0 -25 68 -92 45 -46 82 -88 82 -94 0
-22 -42 -64 -64 -64 -15 0 -60 38 -144 124 -124 126 -142 137 -203 128 l-33
-5 39 -33 39 -32 -83 -90 c-85 -94 -120 -114 -160 -92 -21 11 -38 52 -32 80 1
8 36 49 78 91 l75 76 -32 7 c-34 6 -346 6 -392 -1z"/>
<path d="M1040 5631 c-20 -38 21 -82 59 -62 44 24 31 81 -19 81 -19 0 -33 -7
-40 -19z"/>
<path d="M2593 4866 l-28 -24 -3 -1059 c-2 -782 1 -1065 9 -1086 25 -61 -45
-57 1119 -57 994 0 1066 2 1086 18 12 9 27 27 33 39 8 16 11 317 11 1068 0
1125 2 1087 -49 1115 -13 7 -373 10 -1085 10 l-1065 0 -28 -24z m1984 -742
c52 -30 61 -30 73 1 10 26 24 32 35 15 4 -6 3 -58 -1 -116 -6 -88 -9 -104 -23
-102 -10 2 -18 19 -23 47 -10 56 -49 116 -90 137 -44 23 -123 21 -157 -3 -39
-29 -52 -62 -48 -116 5 -54 25 -81 102 -133 l50 -34 -96 0 c-102 0 -110 3
-139 60 -18 33 -16 130 3 166 55 105 204 142 314 78z m-1634 11 c-2 -5 -18
-14 -35 -18 -18 -5 -36 -14 -40 -20 -4 -7 -8 -72 -8 -145 l0 -133 -57 3 -58 3
-3 130 c-2 118 -4 132 -23 148 -12 9 -32 17 -45 17 -24 0 -31 10 -17 24 11 11
288 2 286 -9z m467 0 c0 -9 -9 -15 -25 -15 -14 0 -34 -9 -45 -20 -18 -18 -20
-33 -20 -150 l0 -130 -55 0 -55 0 -1 113 c-1 163 -4 173 -53 183 -21 3 -36 12
-36 20 0 11 28 14 145 14 122 0 145 -2 145 -15z m548 -14 c93 -42 137 -121
114 -207 -21 -78 -37 -94 -94 -94 -44 0 -49 2 -43 18 14 34 22 126 14 160 -16
73 -61 108 -148 119 -38 4 -57 2 -76 -11 -25 -16 -25 -18 -25 -152 l0 -135
-57 3 -58 3 -2 120 c-4 155 -5 162 -45 170 -42 9 -50 14 -42 27 4 6 78 8 208
6 185 -3 205 -5 254 -27z m-1162 -401 c8 0 14 7 14 16 0 8 5 12 10 9 6 -3 10
-22 10 -41 0 -19 -4 -34 -10 -34 -5 0 -10 7 -10 15 0 8 -7 15 -15 15 -8 0 -15
-7 -15 -16 0 -8 -4 -12 -10 -9 -12 7 -13 58 -2 69 4 4 8 1 10 -8 2 -9 10 -16
18 -16z m126 5 c13 -29 -3 -55 -33 -55 -33 0 -44 53 -15 72 20 14 36 8 48 -17z
m66 -2 l10 -28 7 28 c9 33 21 35 29 5 9 -34 7 -58 -4 -58 -5 0 -10 8 -10 18
-1 15 -2 15 -12 -2 -11 -19 -11 -19 -24 -1 -13 17 -14 17 -14 2 0 -9 -4 -17
-10 -17 -12 0 -12 7 -4 49 8 38 19 40 32 4z m132 17 c0 -5 -10 -11 -22 -11
-17 -1 -19 -2 -5 -6 9 -2 17 -8 17 -13 0 -5 -8 -10 -17 -13 -15 -3 -14 -6 7
-15 l25 -11 -27 0 c-26 -1 -28 2 -28 39 0 36 3 40 25 40 14 0 25 -4 25 -10z
m128 -3 c7 -8 7 -18 2 -27 -5 -9 -5 -19 2 -27 13 -16 -4 -17 -20 -1 -9 9 -12
9 -12 0 0 -7 -4 -12 -10 -12 -5 0 -10 18 -10 40 0 32 4 40 19 40 10 0 23 -6
29 -13z m82 3 c0 -5 -8 -11 -17 -11 -17 -1 -17 -2 0 -6 21 -5 23 -23 2 -23
-21 0 -19 -18 3 -23 10 -3 6 -5 -10 -6 -26 -1 -28 2 -28 39 0 36 3 40 25 40
14 0 25 -4 25 -10z m80 -12 c0 13 4 20 10 17 12 -8 13 -75 1 -75 -5 0 -16 10
-24 23 l-16 22 0 -22 c-1 -37 -21 -26 -21 10 0 45 10 53 32 25 l18 -23 0 23z
m112 -3 c14 -30 -5 -57 -36 -53 -39 6 -29 78 10 78 8 0 19 -11 26 -25z m58
-19 c1 -6 7 2 14 19 6 16 15 25 18 20 6 -12 -19 -75 -30 -75 -8 0 -32 58 -32
76 1 12 30 -27 30 -40z m106 8 c8 -20 12 -39 8 -43 -4 -3 -9 0 -11 7 -3 6 -11
12 -18 12 -7 0 -15 -6 -18 -12 -2 -7 -7 -10 -11 -7 -7 6 20 79 30 79 3 0 12
-16 20 -36z m84 26 c0 -5 -5 -10 -11 -10 -6 0 -9 -10 -7 -22 1 -13 -2 -24 -7
-25 -6 -1 -9 9 -7 22 2 14 -1 25 -7 25 -6 0 -11 5 -11 10 0 6 11 10 25 10 14
0 25 -4 25 -10z m50 -30 c0 -22 -4 -40 -10 -40 -5 0 -10 18 -10 40 0 22 5 40
10 40 6 0 10 -18 10 -40z m94 18 c14 -23 -3 -52 -32 -56 -16 -2 -23 3 -28 22
-12 48 35 74 60 34z m80 -18 c3 0 3 6 0 14 -3 8 -1 17 5 21 7 4 11 -8 11 -34
0 -41 -13 -55 -24 -26 -3 8 -10 15 -16 15 -6 0 -9 -4 -5 -9 3 -5 1 -12 -5 -16
-6 -4 -10 10 -10 37 l1 43 18 -22 c11 -13 22 -23 25 -23z m136 30 c0 -5 -7
-10 -16 -10 -13 0 -11 -4 6 -18 13 -11 20 -24 16 -30 -9 -14 -46 -16 -46 -2 0
5 7 7 15 4 22 -9 18 9 -6 24 -16 11 -18 16 -9 28 14 16 40 19 40 4z m90 0 c0
-5 -8 -10 -17 -10 -15 0 -14 -2 3 -15 17 -13 17 -14 2 -15 -10 0 -18 -4 -18
-9 0 -5 8 -12 18 -14 10 -3 6 -5 -10 -6 -26 -1 -28 2 -28 39 0 36 3 40 25 40
14 0 25 -4 25 -10z m77 -2 c9 -15 11 -68 3 -68 -4 0 -11 5 -18 12 -9 9 -12 9
-12 0 0 -7 -4 -12 -10 -12 -5 0 -10 18 -10 40 0 33 3 40 19 40 11 0 23 -6 28
-12z m61 -15 l10 -28 11 29 c6 16 14 26 17 23 8 -8 -18 -77 -29 -77 -7 0 -37
60 -37 75 0 16 20 1 28 -22z m84 -9 c2 -19 0 -37 -4 -40 -4 -3 -8 13 -8 35 0
51 6 53 12 5z m93 27 c3 -5 -5 -11 -17 -13 -28 -4 -33 -44 -5 -42 9 1 17 -2
17 -7 0 -15 -37 -10 -50 6 -10 12 -10 21 -2 40 11 25 45 34 57 16z m75 -1 c0
-5 -8 -11 -17 -11 -17 -1 -17 -2 0 -6 9 -2 17 -8 17 -13 0 -5 -8 -10 -17 -13
-15 -3 -14 -6 7 -15 l25 -12 -30 3 c-23 1 -31 7 -33 25 -2 13 -1 30 2 38 6 16
46 19 46 4z m-1750 -247 c3 -50 8 -95 12 -98 4 -4 21 -10 38 -14 17 -3 31 -11
31 -16 -1 -16 -283 -13 -288 3 -3 7 5 12 23 12 52 0 64 23 64 122 l0 89 58 -3
57 -3 5 -92z m460 12 c0 -94 16 -125 65 -125 16 0 25 -6 25 -15 0 -13 -23 -15
-145 -15 -122 0 -145 2 -145 15 0 9 9 15 23 15 49 0 60 20 65 119 l4 91 54 0
54 0 0 -85z m380 -2 c0 -98 13 -123 62 -123 19 0 28 -4 26 -12 -4 -10 -42 -13
-146 -13 -137 0 -186 11 -113 26 18 4 37 13 42 21 5 7 9 49 9 94 0 44 3 84 7
87 3 4 30 7 60 7 l53 0 0 -87z m339 50 c6 -21 15 -62 21 -91 17 -79 49 -102
85 -62 18 20 45 27 45 12 0 -16 -47 -53 -79 -62 -62 -18 -118 6 -146 61 -13
23 -45 147 -45 170 0 5 25 9 55 9 l54 0 10 -37z m253 -6 c19 -91 68 -150 138
-166 132 -29 221 70 174 194 -6 14 1 16 57 13 l64 -3 -2 -48 c-6 -116 -97
-189 -238 -191 -56 0 -82 5 -129 27 -32 15 -60 27 -62 27 -3 0 -9 -11 -14 -25
-5 -14 -16 -25 -25 -25 -13 0 -15 19 -15 121 0 118 0 120 22 117 17 -2 24 -12
30 -41z"/>
<path d="M2876 3721 c-9 -14 5 -42 18 -38 15 5 14 39 -1 44 -6 2 -14 0 -17 -6z"/>
<path d="M3220 3719 c0 -5 5 -7 10 -4 6 3 10 8 10 11 0 2 -4 4 -10 4 -5 0 -10
-5 -10 -11z"/>
<path d="M3476 3721 c-9 -14 5 -42 18 -38 15 5 14 39 -1 44 -6 2 -14 0 -17 -6z"/>
<path d="M3872 3708 c2 -13 8 -23 13 -23 6 0 11 10 13 23 2 15 -2 22 -13 22
-11 0 -15 -7 -13 -22z"/>
<path d="M4270 3720 c0 -5 5 -10 10 -10 6 0 10 5 10 10 0 6 -4 10 -10 10 -5 0
-10 -4 -10 -10z"/>
<path d="M5985 4657 c-44 -21 -113 -100 -120 -139 -8 -42 2 -68 145 -368 126
-265 144 -290 216 -290 58 0 76 10 145 76 l55 55 32 -31 c34 -32 39 -49 20
-68 -9 -9 13 -36 93 -118 57 -58 117 -113 133 -121 45 -24 111 -12 150 26 28
28 31 38 31 91 l0 60 -116 116 c-108 108 -118 115 -137 103 -19 -12 -25 -10
-57 21 l-35 34 54 56 c29 30 59 65 65 77 19 37 13 107 -11 138 -25 33 -261
150 -284 141 -37 -14 -9 -39 109 -97 67 -33 128 -67 135 -76 27 -37 15 -72
-47 -136 l-59 -61 -41 37 c-50 45 -90 49 -126 12 -36 -35 -32 -73 10 -119 19
-21 35 -42 35 -46 0 -4 -27 -32 -59 -63 -63 -60 -97 -71 -134 -43 -18 14 -264
523 -268 554 -3 37 2 53 31 85 57 65 74 66 201 8 122 -56 149 -61 149 -32 0
15 -26 32 -107 71 -119 57 -163 67 -208 47z m500 -577 c85 -85 89 -91 72 -107
-16 -17 -22 -13 -108 73 -66 66 -88 95 -83 107 3 9 11 17 18 17 6 0 52 -40
101 -90z m263 -184 c79 -80 92 -98 92 -127 0 -44 -33 -79 -77 -79 -28 0 -47
13 -130 95 l-97 95 54 55 c30 30 57 55 60 55 4 0 48 -42 98 -94z"/>
<path d="M844 4426 c-17 -8 -41 -28 -53 -44 -48 -68 -51 -95 -51 -419 l0 -304
26 -26 c21 -21 32 -25 65 -20 l39 5 0 -44 c0 -57 33 -94 82 -94 65 1 88 39 88
147 l0 79 39 -4 c32 -3 45 1 65 22 25 24 26 31 26 131 l0 105 315 0 314 0 37
32 37 33 -6 -44 c-11 -83 -17 -85 -265 -91 -242 -6 -255 -9 -287 -76 -10 -21
-23 -34 -35 -34 -17 0 -20 -7 -20 -40 0 -22 -4 -40 -9 -40 -5 0 -17 -7 -25
-16 -14 -13 -16 -54 -16 -289 0 -150 3 -280 6 -289 5 -13 25 -16 110 -16 l104
0 0 299 c0 291 -1 300 -20 306 -15 5 -20 15 -20 42 0 27 -5 36 -21 40 -12 4
-18 11 -15 20 3 8 6 16 6 19 0 2 13 10 30 19 23 12 69 15 227 15 221 0 245 6
278 71 23 44 17 355 -7 409 -21 45 -60 87 -93 100 -16 6 -202 10 -473 10 -353
-1 -454 -4 -478 -14z m969 -63 c59 -57 73 -203 27 -292 -37 -74 -19 -71 -462
-71 l-397 0 27 53 c23 45 27 64 27 142 0 77 -4 98 -26 142 -14 29 -25 54 -23
55 1 2 181 2 400 0 l398 -2 29 -27z m-871 0 c37 -41 53 -90 53 -163 0 -110
-50 -200 -110 -200 -31 0 -81 59 -96 112 -24 90 8 238 58 267 32 19 68 12 95
-16z m48 -403 l140 0 0 -91 c0 -100 -10 -129 -43 -129 -34 0 -47 19 -47 67 0
36 -3 43 -20 43 -19 0 -20 -7 -20 -149 0 -123 -3 -152 -16 -165 -20 -20 -38
-20 -58 0 -12 12 -16 37 -16 110 0 87 -1 94 -20 94 -14 0 -20 -7 -20 -24 0
-13 -8 -34 -19 -47 -16 -21 -22 -22 -45 -11 l-26 12 0 176 0 176 35 -31 36
-31 139 0z m360 -240 c0 -15 -7 -20 -25 -20 -18 0 -25 5 -25 20 0 15 7 20 25
20 18 0 25 -5 25 -20z m40 -330 l0 -260 -65 0 -65 0 0 260 0 260 65 0 65 0 0
-260z"/>
<path d="M843 4274 c-21 -32 -23 -112 -4 -148 20 -36 57 -44 84 -18 28 29 35
117 13 160 -22 42 -67 45 -93 6z m61 -36 c10 -38 7 -73 -8 -93 -13 -18 -15
-17 -24 19 -6 20 -9 44 -6 52 2 8 6 21 9 29 7 22 22 18 29 -7z"/>
<path d="M1302 3198 c5 -34 38 -37 38 -4 0 20 -5 26 -21 26 -15 0 -20 -5 -17
-22z"/>
<path d="M5277 4340 l-26 -21 0 -629 0 -629 26 -21 c25 -20 36 -21 237 -17
116 3 217 4 224 4 41 -1 641 -1 657 0 11 0 116 -1 233 -4 l212 -4 25 25 25 25
-2 283 c-3 260 -4 283 -20 286 -12 2 -21 -6 -28 -22 l-10 -26 -197 2 -198 3
-3 93 c-3 90 -2 92 23 104 14 6 25 19 25 28 0 21 -31 31 -54 18 -11 -6 -28 -6
-48 1 -20 7 -173 11 -440 11 l-409 0 3 98 3 97 231 3 c187 2 234 5 244 17 23
28 0 35 -113 35 -62 0 -118 4 -125 8 -9 6 -12 34 -10 103 l3 94 48 3 c43 3 48
5 45 25 -3 22 -4 22 -279 25 -266 3 -276 2 -302 -18z m421 -42 c18 -18 16
-172 -2 -187 -9 -8 -72 -11 -202 -9 l-189 3 -3 89 c-2 49 -1 95 2 103 7 18
376 19 394 1z m-223 -271 c3 -12 5 -56 3 -97 l-3 -75 -87 -3 -88 -3 0 94 c0
51 3 97 7 100 3 4 41 7 84 7 73 0 79 -2 84 -23z m230 -337 l0 -95 -202 -3
-203 -2 0 100 0 100 203 -2 202 -3 0 -95z m670 0 l0 -95 -200 -5 c-198 -5
-200 -5 -203 -27 -3 -22 0 -23 72 -23 99 0 106 -8 106 -109 0 -54 -4 -82 -14
-90 -9 -8 -99 -11 -307 -9 l-294 3 -3 94 c-2 69 1 97 10 103 7 4 93 8 191 8
l178 0 -3 23 c-3 20 -10 22 -73 27 l-70 5 -3 84 c-2 46 -1 90 2 98 5 11 62 13
308 11 l303 -3 0 -95z m-907 -162 c18 -18 16 -172 -2 -187 -9 -7 -42 -11 -88
-9 l-73 3 -3 94 c-2 69 1 97 10 103 20 12 142 10 156 -4z m1130 4 c9 -6 12
-34 10 -103 l-3 -94 -200 0 -200 0 -3 94 c-2 69 1 97 10 103 7 4 94 8 193 8
99 0 186 -4 193 -8z m230 0 c9 -6 12 -34 10 -103 l-3 -94 -85 0 -85 0 -3 94
c-2 69 1 97 10 103 7 4 42 8 78 8 36 0 71 -4 78 -8z m-1124 -268 c12 -32 6
-171 -8 -183 -9 -8 -72 -11 -202 -9 l-189 3 -3 89 c-2 49 -1 95 2 103 4 10 47
13 200 13 168 0 195 -2 200 -16z m664 4 c16 -16 16 -170 0 -186 -9 -9 -88 -12
-294 -12 -155 0 -289 3 -298 6 -13 5 -16 23 -16 98 0 51 3 96 7 99 3 4 137 7
298 7 213 0 294 -3 303 -12z m470 -87 c2 -69 -1 -97 -10 -103 -15 -9 -358 -11
-382 -2 -13 5 -16 23 -16 98 0 51 3 96 7 100 4 3 95 5 202 4 l196 -3 3 -94z"/>
<path d="M1827 2153 c-9 -11 -36 -25 -58 -32 -71 -21 -121 -91 -65 -91 13 0
29 7 36 15 7 8 32 24 56 35 47 20 58 35 52 70 -3 22 -3 22 -21 3z"/>
<path d="M5990 1510 c0 -387 3 -590 10 -590 7 0 10 203 10 590 0 387 -3 590
-10 590 -7 0 -10 -203 -10 -590z"/>
<path d="M1888 2062 c-38 -25 -47 -45 -27 -57 21 -13 57 5 69 35 18 43 2 51
-42 22z"/>
<path d="M1657 1952 c-18 -20 -23 -82 -7 -82 6 0 10 8 10 19 0 25 24 43 52 39
21 -3 23 -9 28 -68 4 -58 7 -65 28 -68 21 -3 22 -1 22 81 0 95 -1 97 -74 97
-29 0 -48 -6 -59 -18z"/>
<path d="M3920 1845 l-126 -125 -275 2 -274 3 -2 75 c-1 41 -2 83 -2 93 -1 24
-45 22 -86 -3 -65 -40 -66 -49 -63 -502 l3 -406 25 -27 c48 -52 67 -55 367
-55 l277 0 -52 -53 c-29 -29 -52 -58 -52 -65 0 -10 70 -12 313 -10 l312 3 3
313 c2 336 2 340 -48 287 -12 -13 -26 -22 -31 -19 -4 2 -8 80 -8 172 0 92 0
173 0 180 -1 8 -22 12 -71 12 -38 0 -70 3 -70 7 0 3 24 32 54 63 41 43 53 62
49 78 -6 24 -86 102 -104 102 -7 0 -69 -56 -139 -125z m179 51 c35 -36 36 -57
3 -75 -16 -8 -26 -3 -57 29 -38 39 -38 40 -20 60 25 27 36 25 74 -14z m-887
-288 c2 -206 6 -272 16 -276 9 -3 12 34 12 161 0 91 3 172 6 181 5 14 37 16
255 16 137 0 249 -3 249 -7 0 -4 -21 -29 -47 -55 -31 -32 -44 -51 -37 -58 6
-6 52 33 134 115 l124 125 38 -37 c21 -20 38 -42 38 -47 0 -14 -341 -356 -354
-356 -14 0 -76 62 -76 75 0 6 14 24 30 40 28 27 40 55 22 55 -4 0 -29 -21 -54
-47 -37 -37 -53 -66 -75 -128 -28 -79 -28 -80 -65 -83 -25 -2 -38 -8 -38 -18
0 -12 37 -14 258 -12 165 2 256 7 255 13 -2 6 -73 12 -175 15 -95 3 -168 8
-163 11 6 4 26 12 46 18 25 8 88 64 220 196 l184 185 78 0 77 0 0 -193 0 -192
-125 -125 c-111 -111 -142 -150 -117 -150 4 0 77 70 161 154 85 85 158 153
163 150 4 -3 8 -36 8 -75 0 -67 -1 -69 -26 -69 -32 0 -30 -33 3 -38 30 -4 25
-46 -5 -50 -29 -4 -28 -30 1 -34 16 -2 22 -10 22 -28 0 -18 -6 -26 -22 -28
-13 -2 -23 -10 -23 -17 0 -7 10 -15 23 -17 16 -2 22 -10 22 -28 0 -18 -6 -26
-22 -28 -32 -5 -29 -32 3 -32 23 0 25 -3 22 -42 l-3 -43 -255 -3 c-140 -1
-261 0 -269 3 -10 4 13 33 78 99 59 59 89 96 82 101 -7 4 -31 -11 -57 -35
l-45 -41 -297 3 c-224 2 -303 6 -320 16 -30 17 -52 69 -45 105 7 34 56 77 89
77 23 0 24 2 24 80 0 64 -3 80 -15 80 -12 0 -15 -14 -15 -63 l0 -63 -37 -14
c-21 -8 -42 -16 -46 -18 -4 -2 -7 152 -5 343 l3 347 33 29 c18 16 37 29 42 29
6 0 11 -105 12 -272z m817 218 c33 -34 37 -66 8 -66 -22 0 -80 67 -74 84 10
25 30 19 66 -18z m-447 -446 c27 -26 30 -32 18 -40 -38 -24 -77 2 -66 45 4 14
8 25 11 25 2 0 19 -14 37 -30z"/>
<path d="M4037 1022 c-53 -53 -97 -103 -97 -110 0 -9 30 -12 110 -12 l110 0 0
110 c0 82 -3 110 -13 110 -7 0 -56 -44 -110 -98z m93 -32 l0 -60 -67 0 -67 0
59 60 c33 33 63 60 67 60 4 0 8 -27 8 -60z"/>
<path d="M1203 1916 c-64 -21 -201 -101 -305 -179 -186 -139 -348 -269 -348
-278 0 -15 54 16 250 146 384 254 467 285 618 234 80 -27 223 -113 436 -263
124 -87 180 -120 208 -123 30 -5 38 -2 38 10 0 28 -41 63 -205 178 -194 137
-346 230 -423 260 -70 28 -206 35 -269 15z"/>
<path d="M1294 1597 c-11 -29 6 -37 72 -37 57 0 65 -2 62 -17 -3 -16 -20 -19
-123 -25 -66 -4 -134 -10 -152 -13 -40 -7 -98 -70 -112 -122 -14 -48 -14 -134
-1 -167 9 -25 13 -26 82 -25 110 2 122 7 126 56 l3 40 137 5 c143 4 205 19
147 34 -17 5 -93 9 -170 9 l-140 0 0 -50 0 -50 -72 -3 -73 -3 0 57 c0 38 7 72
20 100 32 65 64 74 274 74 180 0 206 3 206 25 0 16 -23 25 -66 25 -29 0 -34 3
-34 24 0 21 6 25 48 31 26 3 58 9 71 12 53 13 -15 26 -156 31 -124 4 -143 3
-149 -11z"/>
<path d="M5710 1601 c0 -5 -39 -11 -86 -12 -85 -4 -86 -4 -117 -42 -89 -107
-134 -147 -164 -147 -17 0 -36 -7 -44 -16 -14 -18 -15 -17 63 -60 33 -19 45
-31 41 -43 -4 -13 -3 -13 5 -2 8 11 18 8 57 -14 39 -23 49 -26 56 -14 5 8 6
21 2 29 -15 34 -14 92 2 141 26 76 43 89 120 89 37 0 65 -4 65 -10 0 -5 9 -10
20 -10 18 0 20 7 20 60 0 53 -2 60 -20 60 -11 0 -20 -4 -20 -9z m30 -51 c0
-27 -4 -50 -10 -50 -5 0 -10 23 -10 50 0 28 5 50 10 50 6 0 10 -22 10 -50z
m-32 4 c3 -20 -2 -22 -68 -26 -68 -4 -74 -6 -100 -38 -27 -33 -30 -34 -46 -18
-16 16 -16 19 10 53 36 47 57 55 136 52 58 -2 65 -4 68 -23z m-207 -104 c19
-15 21 -19 7 -20 -27 0 -48 11 -48 26 0 19 14 17 41 -6z m-31 -25 c22 -12 25
-20 25 -64 0 -28 -3 -51 -8 -51 -10 0 -116 60 -121 69 -3 4 11 15 30 26 19 10
34 22 34 27 0 11 11 10 40 -7z m-53 -96 c98 -57 98 -57 91 -64 -5 -6 -198 103
-198 111 0 11 26 0 107 -47z"/>
<path d="M6930 1582 c-27 -13 -37 -26 -45 -55 -12 -50 4 -80 65 -123 110 -78
133 -121 90 -164 -43 -43 -123 -10 -136 56 -11 60 -24 48 -24 -23 0 -45 3 -63
9 -54 8 12 14 13 36 3 14 -7 49 -12 76 -12 42 0 55 5 80 29 36 36 39 86 7 126
-11 15 -51 47 -88 70 -75 48 -92 80 -65 121 34 52 135 12 135 -52 0 -13 5 -24
10 -24 6 0 10 25 10 55 0 49 -12 73 -22 44 -3 -8 -14 -7 -35 5 -41 20 -60 20
-103 -2z"/>
<path d="M6120 1583 c35 -12 40 -35 40 -182 0 -80 -4 -151 -8 -157 -4 -6 -16
-16 -27 -22 -16 -9 -7 -11 53 -12 46 0 71 4 67 10 -3 6 -13 10 -21 10 -11 0
-14 17 -14 80 l0 80 85 0 85 0 0 -74 c0 -65 -3 -75 -22 -89 -22 -15 -19 -16
52 -16 62 0 71 2 52 11 -31 15 -33 31 -30 198 3 143 3 145 28 157 22 11 17 13
-50 12 -41 0 -68 -3 -60 -6 25 -10 30 -25 30 -100 l0 -73 -85 0 -85 0 0 80 c0
74 2 81 23 90 16 6 2 9 -53 9 -41 -1 -68 -3 -60 -6z"/>
<path d="M6538 1580 c22 -9 22 -12 22 -178 0 -165 0 -169 -22 -180 -19 -9 -9
-11 52 -11 61 0 71 2 55 11 -31 18 -35 28 -35 101 l0 67 44 0 c49 0 56 -9 76
-105 6 -27 16 -55 22 -62 14 -18 73 -16 88 2 8 9 9 15 2 15 -6 0 -14 -5 -17
-10 -13 -20 -32 9 -44 67 -14 63 -25 81 -54 92 -16 6 -13 10 19 31 46 30 61
69 44 111 -20 47 -55 59 -172 58 -72 0 -96 -3 -80 -9z m177 -25 c56 -55 16
-145 -65 -145 l-40 0 0 66 c0 36 5 74 10 85 15 28 65 25 95 -6z"/>
<path d="M1874 1483 c-15 -16 -16 -37 -10 -228 6 -190 22 -384 32 -394 19 -20
33 104 41 381 5 177 3 231 -7 243 -16 20 -34 19 -56 -2z"/>
<path d="M717 1483 c-18 -17 -2 -492 19 -596 20 -99 44 107 44 386 l0 217 -28
0 c-16 0 -32 -3 -35 -7z"/>
<path d="M5235 1290 c-3 -5 -1 -10 4 -10 6 0 11 5 11 10 0 6 -2 10 -4 10 -3 0
-8 -4 -11 -10z"/>
<path d="M5320 1279 c0 -5 5 -7 10 -4 6 3 10 8 10 11 0 2 -4 4 -10 4 -5 0 -10
-5 -10 -11z"/>
<path d="M5210 1259 c0 -5 5 -7 10 -4 6 3 10 8 10 11 0 2 -4 4 -10 4 -5 0 -10
-5 -10 -11z"/>
<path d="M5260 1260 c0 -5 5 -10 10 -10 6 0 10 5 10 10 0 6 -4 10 -10 10 -5 0
-10 -4 -10 -10z"/>
<path d="M5350 1259 c0 -5 5 -7 10 -4 6 3 10 8 10 11 0 2 -4 4 -10 4 -5 0 -10
-5 -10 -11z"/>
<path d="M5385 1250 c-3 -5 -1 -10 4 -10 6 0 11 5 11 10 0 6 -2 10 -4 10 -3 0
-8 -4 -11 -10z"/>
<path d="M5235 1230 c-3 -5 -1 -10 4 -10 6 0 11 5 11 10 0 6 -2 10 -4 10 -3 0
-8 -4 -11 -10z"/>
<path d="M5415 1230 c-3 -5 -1 -10 4 -10 6 0 11 5 11 10 0 6 -2 10 -4 10 -3 0
-8 -4 -11 -10z"/>
<path d="M5485 1230 c-3 -5 -1 -10 4 -10 6 0 11 5 11 10 0 6 -2 10 -4 10 -3 0
-8 -4 -11 -10z"/>
<path d="M5330 1219 c0 -5 5 -7 10 -4 6 3 10 8 10 11 0 2 -4 4 -10 4 -5 0 -10
-5 -10 -11z"/>
<path d="M5275 1210 c-3 -5 -1 -10 4 -10 6 0 11 5 11 10 0 6 -2 10 -4 10 -3 0
-8 -4 -11 -10z"/>
<path d="M5370 1209 c0 -5 5 -7 10 -4 6 3 10 8 10 11 0 2 -4 4 -10 4 -5 0 -10
-5 -10 -11z"/>
<path d="M5481 1194 c0 -11 3 -14 6 -6 3 7 2 16 -1 19 -3 4 -6 -2 -5 -13z"/>
<path d="M5210 1189 c0 -5 5 -7 10 -4 6 3 10 8 10 11 0 2 -4 4 -10 4 -5 0 -10
-5 -10 -11z"/>
<path d="M5310 1190 c0 -5 5 -10 10 -10 6 0 10 5 10 10 0 6 -4 10 -10 10 -5 0
-10 -4 -10 -10z"/>
<path d="M5400 1190 c0 -5 5 -10 10 -10 6 0 10 5 10 10 0 6 -4 10 -10 10 -5 0
-10 -4 -10 -10z"/>
<path d="M5355 1180 c-3 -5 -1 -10 4 -10 6 0 11 5 11 10 0 6 -2 10 -4 10 -3 0
-8 -4 -11 -10z"/>
<path d="M5391 1154 c0 -11 3 -14 6 -6 3 7 2 16 -1 19 -3 4 -6 -2 -5 -13z"/>
<path d="M5470 1160 c0 -5 5 -10 10 -10 6 0 10 5 10 10 0 6 -4 10 -10 10 -5 0
-10 -4 -10 -10z"/>
<path d="M1101 1090 c-38 -83 -38 -124 0 -153 39 -28 81 -16 102 29 10 19 17
41 17 50 0 23 -64 143 -76 144 -6 0 -25 -31 -43 -70z m68 -72 c12 -24 17 -46
12 -51 -15 -15 -56 -3 -59 16 -3 16 15 77 23 77 2 0 12 -19 24 -42z"/>
<path d="M5230 1139 c0 -5 5 -7 10 -4 6 3 10 8 10 11 0 2 -4 4 -10 4 -5 0 -10
-5 -10 -11z"/>
<path d="M765 810 c-110 -4 -202 -8 -205 -10 -26 -14 182 -21 780 -26 734 -7
794 -4 746 32 -17 12 -107 14 -570 12 -303 -1 -641 -5 -751 -8z"/>
<path d="M5058 617 c13 -15 12 -57 -1 -74 -7 -9 -4 -13 10 -13 16 0 19 5 15
25 -4 22 -1 25 22 25 19 0 26 -5 26 -19 0 -11 -6 -22 -12 -24 -7 -3 -4 -6 7
-6 17 -1 20 5 20 49 0 43 -3 50 -19 50 -16 0 -17 -3 -8 -12 19 -19 14 -28 -14
-28 -21 0 -25 4 -21 20 4 15 0 20 -15 20 -16 0 -18 -3 -10 -13z"/>
<path d="M5178 619 c-29 -16 -23 -67 8 -81 33 -15 58 -1 62 36 6 47 -29 69
-70 45z m56 -21 c13 -21 -2 -51 -27 -56 -23 -5 -40 33 -27 59 13 23 38 22 54
-3z"/>
<path d="M5274 617 c10 -7 25 -31 35 -52 16 -36 18 -38 23 -17 3 12 3 20 -1
17 -4 -2 -15 11 -24 30 -9 20 -24 35 -34 35 -16 0 -15 -1 1 -13z"/>
<path d="M5359 623 c-6 -73 -3 -93 15 -93 14 0 16 3 8 13 -13 15 -12 57 1 75
7 8 5 12 -7 12 -9 0 -16 -3 -17 -7z"/>
<path d="M5405 580 c0 -50 0 -50 32 -50 17 0 34 4 37 8 3 5 -8 6 -25 4 -24 -4
-29 -1 -29 16 0 13 8 22 23 25 l22 4 -22 2 c-33 2 -29 29 5 34 23 3 22 4 -8 6
l-35 1 0 -50z"/>
<path d="M5528 623 c6 -2 12 -22 12 -43 0 -21 -6 -41 -12 -43 -7 -3 -3 -6 8
-6 18 -1 21 4 17 27 l-4 27 23 -27 c20 -24 31 -28 76 -28 29 0 52 4 52 9 0 4
-11 6 -25 3 -21 -3 -25 0 -25 18 0 17 4 21 20 17 12 -3 20 0 20 8 0 8 -8 11
-20 8 -14 -4 -20 0 -20 12 0 13 6 16 25 13 14 -3 25 -1 25 3 0 5 -19 9 -41 9
-32 0 -39 -3 -31 -12 15 -20 8 -72 -10 -76 -22 -4 -45 37 -28 48 26 16 2 40
-37 39 -21 0 -32 -3 -25 -6z m52 -18 c0 -8 -7 -15 -15 -15 -8 0 -15 7 -15 15
0 8 7 15 15 15 8 0 15 -7 15 -15z"/>
<path d="M5730 610 c12 -11 33 -34 46 -52 l24 -32 0 28 c0 15 -4 25 -9 21 -5
-3 -19 8 -31 25 -12 16 -28 30 -37 30 -12 0 -11 -5 7 -20z"/>
<path d="M5785 620 c3 -5 12 -7 20 -3 21 7 19 13 -6 13 -11 0 -18 -4 -14 -10z"/>
<path d="M5836 614 c-30 -30 -9 -84 33 -84 21 0 51 30 51 52 0 19 -32 48 -53
48 -8 0 -23 -7 -31 -16z m52 -3 c8 -5 12 -21 10 -37 -2 -23 -8 -29 -28 -29
-19 0 -26 6 -28 23 -7 45 14 64 46 43z"/>
<path d="M5933 615 c9 -8 21 -31 27 -50 6 -19 16 -35 21 -35 12 0 12 0 -11 44
-10 22 -17 43 -14 47 3 5 -4 9 -16 9 -19 0 -20 -2 -7 -15z"/>
<path d="M6005 620 c4 -6 11 -8 16 -5 14 9 11 15 -7 15 -8 0 -12 -5 -9 -10z"/>
<path d="M6056 622 c-4 -7 0 -20 10 -30 17 -16 17 -17 -7 -20 -29 -3 -60 -42
-34 -42 8 0 14 6 13 13 -2 7 7 12 22 12 15 0 24 -5 23 -12 -2 -8 7 -13 20 -13
13 0 17 3 11 8 -6 4 -20 27 -31 52 -12 29 -22 40 -27 32z"/>
<path d="M6123 623 c16 -4 18 -13 15 -49 -3 -38 -1 -44 16 -44 16 0 17 3 8 12
-7 7 -12 27 -12 46 0 29 3 34 20 29 11 -3 20 -1 20 4 0 5 -19 8 -42 8 -24 -1
-35 -3 -25 -6z"/>
<path d="M6205 580 c0 -44 3 -50 20 -49 11 0 14 3 8 6 -16 6 -17 65 -1 81 9 9
8 12 -7 12 -17 0 -20 -7 -20 -50z"/>
<path d="M6261 616 c-17 -20 -10 -67 11 -79 28 -18 68 7 68 42 0 44 -53 68
-79 37z m59 -16 c20 -38 -19 -77 -48 -48 -23 23 -7 68 25 68 7 0 17 -9 23 -20z"/>
<path d="M6349 623 c13 -5 48 -42 77 -82 10 -12 13 -5 15 37 3 33 0 52 -7 52
-6 0 -9 -14 -7 -32 l4 -33 -29 33 c-16 17 -37 32 -48 31 -13 0 -15 -2 -5 -6z"/>
<path d="M6507 623 c-14 -14 -6 -34 18 -45 26 -12 34 -38 12 -38 -7 0 -18 5
-25 12 -9 9 -12 9 -12 1 0 -18 39 -26 55 -13 22 18 18 28 -15 45 -32 17 -31
40 1 32 11 -3 17 -1 13 4 -6 10 -38 12 -47 2z"/>
<path d="M6585 580 l0 -50 38 0 c20 0 37 4 37 8 0 4 -12 8 -27 7 -18 0 -28 5
-28 15 0 9 9 15 23 14 12 0 22 5 22 11 0 8 -10 10 -25 7 -18 -3 -25 0 -25 11
0 9 11 17 28 20 23 3 22 4 -8 6 l-35 1 0 -50z"/>
<path d="M6675 580 c0 -41 3 -50 18 -50 15 0 15 3 5 20 -19 30 -1 36 23 7 11
-15 27 -27 34 -27 9 0 4 10 -12 26 -20 20 -23 28 -13 34 21 13 3 40 -27 40
-27 0 -28 -2 -28 -50z m48 25 c1 -5 -5 -11 -14 -13 -9 -2 -16 4 -16 13 0 17
27 17 30 0z"/>
<path d="M6763 615 c9 -8 21 -31 27 -50 6 -19 16 -35 21 -35 12 0 12 0 -11 44
-10 22 -17 43 -14 47 3 5 -4 9 -16 9 -19 0 -20 -2 -7 -15z"/>
<path d="M6834 621 c3 -5 15 -7 26 -4 18 5 20 0 20 -35 0 -23 -5 -43 -12 -45
-7 -3 1 -5 17 -5 17 0 24 2 18 5 -7 2 -13 22 -13 43 0 21 6 41 13 43 6 3 -7 6
-31 6 -24 1 -41 -3 -38 -8z"/>
<path d="M6926 608 c-21 -29 -20 -41 2 -61 21 -19 48 -22 57 -7 3 6 -1 7 -10
4 -8 -4 -22 -1 -30 6 -34 29 -2 85 36 62 15 -10 19 -9 19 1 0 23 -57 19 -74
-5z"/>
<path d="M7023 600 c9 -23 9 -35 -1 -50 -11 -19 -10 -20 28 -20 22 0 40 4 40
9 0 4 -11 6 -25 3 -21 -3 -25 0 -25 18 0 17 4 21 20 17 12 -3 20 0 20 8 0 8
-8 11 -20 8 -14 -4 -20 0 -20 12 0 13 6 16 25 13 14 -3 25 -1 25 3 0 5 -18 9
-39 9 l-39 0 11 -30z"/>
<path d="M6355 540 c-4 -6 3 -10 14 -10 25 0 27 6 6 13 -8 4 -17 2 -20 -3z"/>
<path d="M5268 533 c6 -2 18 -2 25 0 6 3 1 5 -13 5 -14 0 -19 -2 -12 -5z"/>
<path d="M5718 533 c6 -2 18 -2 25 0 6 3 1 5 -13 5 -14 0 -19 -2 -12 -5z"/>
</g>
</svg>
